# xmcd
# 
# Track frame offsets:
#     187
#     18557
#     40812
#     65997
#     84760
#     99755
#     122260
#     142047
#     162707
# 
# Disc length: 2522
# 
# Revision: 6
# Processed by: cddbd v1.5.2PL0 Copyright (c) Steve Scherf et al.
# Submitted via: BonkEnc v1.0.6
# 
DISCID=7109d809
DTITLE=Rainbow - Difficult To Cure (POCP-1806)
DYEAR=1981
DGENRE=Hard Rock
TTITLE0=I Surrender
TTITLE1=Spotlight Kid
TTITLE2=No Release
TTITLE3=Magic
TTITLE4=Vielleicht Das Nachster Zeit (Maybe Next Time)
TTITLE5=Can't Happen Here
TTITLE6=Freedom Fighter
TTITLE7=Midtown Tunnel Vision
TTITLE8=Difficult To Cure
EXTD=YEAR: 1981
EXTT0=
EXTT1=
EXTT2=
EXTT3=
EXTT4=
EXTT5=
EXTT6=
EXTT7=
EXTT8=
PLAYORDER=
